<svg width="32" height="32" viewBox="0 0 32 32" fill="none" xmlns="http://www.w3.org/2000/svg">
<path d="M29.8836 6.146L16.7418 29.6457C16.4517 30.1343 15.7584 30.1462 15.4534 29.6693L1.8563 6.14803C1.52189 5.6247 1.9365 4.9375 2.54748 5.00593L16.0797 6.60633C16.1152 6.61127 16.1514 6.61132 16.1869 6.60648L29.1745 5.00698C29.7835 4.93838 30.2118 5.61858 29.8836 6.146Z" fill="url(#paint0_linear)"/>
<path d="M22.7699 0.609277L12.9784 2.77629C12.8146 2.81472 12.6942 2.95003 12.6767 3.11633L11.4198 15.1735C11.3949 15.4086 11.5739 15.6124 11.8108 15.6124H15.2674C15.5235 15.6124 15.7055 15.3825 15.6644 15.1308L14.6609 9.23556C14.6197 8.98384 14.8018 8.75392 15.0578 8.75392H18.8064C19.0625 8.75392 19.2445 8.98384 19.2033 9.23556L18.1999 15.1308C18.1587 15.3825 18.3408 15.6124 18.5968 15.6124H22.1018C22.3387 15.6124 22.5177 15.4086 22.4928 15.1735L21.2359 3.11633C21.2184 2.95003 21.098 2.81472 20.9342 2.77629L22.7699 0.609277Z" fill="url(#paint1_linear)"/>
<defs>
<linearGradient id="paint0_linear" x1="15.7528" y1="4.99998" x2="15.7528" y2="30" gradientUnits="userSpaceOnUse">
<stop stop-color="#41D1FF"/>
<stop offset="1" stop-color="#BD34FE"/>
</linearGradient>
<linearGradient id="paint1_linear" x1="17.1619" y1="0.609375" x2="17.1619" y2="15.6124" gradientUnits="userSpaceOnUse">
<stop stop-color="#FFEA83"/>
<stop offset="0.0833333" stop-color="#FFDD35"/>
<stop offset="1" stop-color="#FFA800"/>
</linearGradient>
</defs>
</svg>